<svg width="1001" height="414" viewBox="0 0 1001 414" fill="none" xmlns="http://www.w3.org/2000/svg">
<g filter="url(#filter0_d_1_8)">
<path d="M307.222 77.1075C305.842 77.1075 304.549 76.7625 303.255 76.1588C270.221 59.0813 241.5 51.75 207.172 51.75C172.931 51.75 140.674 59.9438 111.09 76.0725C109.091 77.0203 106.806 77.1674 104.702 76.4836C102.599 75.7997 100.836 74.3368 99.7772 72.3949C98.718 70.453 98.4421 68.1794 99.006 66.0406C99.57 63.9017 100.931 62.0597 102.81 60.8925C134.981 43.3837 170.085 34.5 207.172 34.5C243.915 34.5 276 42.6075 311.19 60.8062C315.416 62.9625 317.055 68.2238 314.899 72.45C313.346 75.3825 310.327 77.1075 307.222 77.1075ZM60.375 167.67C58.65 167.67 56.925 167.153 55.3725 166.118C54.4481 165.467 53.661 164.641 53.0565 163.686C52.452 162.731 52.0418 161.666 51.8495 160.553C51.6572 159.439 51.6866 158.298 51.9359 157.196C52.1852 156.094 52.6496 155.051 53.3025 154.129C70.38 129.979 92.2012 111.004 118.076 97.635C172.327 69.6038 241.672 69.5175 296.01 97.4625C321.799 110.745 343.534 129.548 360.697 153.525C363.457 157.406 362.595 162.754 358.714 165.514C354.832 168.274 349.399 167.411 346.639 163.53C331.114 141.795 311.449 124.718 288.161 112.815C238.654 87.3713 175.432 87.4575 126.011 112.988C102.637 125.062 82.8862 142.226 67.4475 164.134C65.7225 166.463 63.0487 167.67 60.375 167.67ZM168.274 375.791C166.031 375.791 163.875 374.929 162.15 373.204C147.229 358.11 139.121 348.536 127.477 327.75C115.575 306.533 109.279 280.571 109.279 252.799C109.279 201.566 153.094 159.821 207 159.821C260.906 159.821 304.721 201.48 304.721 252.799C304.721 257.543 300.84 261.424 296.096 261.424C291.352 261.424 287.471 257.543 287.471 252.799C287.471 211.054 251.419 177.071 207 177.071C162.667 177.071 126.529 211.054 126.529 252.799C126.529 277.639 132.049 300.581 142.485 319.298C153.611 339.135 161.029 347.674 174.311 361.043C177.675 364.406 177.675 369.926 174.225 373.204C172.672 375.015 170.43 375.791 168.274 375.791ZM291.87 343.879C271.342 343.879 253.316 338.704 238.395 328.613C212.779 311.19 197.426 282.9 197.426 252.885C197.426 248.141 201.307 244.26 206.051 244.26C210.795 244.26 214.676 248.141 214.676 252.885C214.676 277.121 227.182 300.064 248.141 314.295C260.302 322.575 274.62 326.629 291.87 326.629C296.01 326.629 302.996 326.198 309.896 324.99C314.554 324.128 319.039 327.319 319.901 331.976C320.764 336.634 317.572 341.119 312.915 341.981C302.824 343.793 294.285 343.879 291.87 343.879ZM257.111 379.5C256.335 379.5 255.559 379.414 254.869 379.155C227.355 371.651 209.415 361.474 190.785 342.93C178.904 331.144 169.485 317.114 163.073 301.656C156.662 286.198 153.387 269.62 153.439 252.885C153.439 224.854 177.244 202.084 206.569 202.084C235.894 202.084 259.699 224.854 259.699 252.885C259.699 271.343 275.827 286.436 295.579 286.436C315.33 286.436 331.459 271.429 331.459 252.885C331.459 187.853 275.396 134.981 206.482 134.981C157.406 134.981 112.642 162.236 92.46 204.499C85.7325 218.471 82.3687 234.773 82.3687 252.885C82.3687 266.34 83.5762 287.558 93.84 315.071C95.4787 319.556 93.2362 324.473 88.7512 326.198C84.2662 327.836 79.35 325.594 77.625 321.109C69.1725 298.425 65.0325 276.173 65.0325 252.885C65.0325 232.185 69 213.383 76.8487 197.081C99.8775 148.954 150.765 117.817 206.396 117.817C284.797 117.817 348.622 178.451 348.622 252.971C348.622 281.003 324.731 303.773 295.492 303.773C266.254 303.773 242.362 281.003 242.362 252.971C242.362 234.514 226.234 219.42 206.482 219.42C186.731 219.42 170.602 234.428 170.602 252.971C170.602 282.383 182.074 310.069 202.86 330.769C219.161 346.984 235.031 355.954 259.354 362.595C263.925 363.889 266.685 368.633 265.391 373.204C264.356 376.999 260.906 379.5 257.111 379.5Z" fill="white"/>
</g>
<path d="M492.296 205.708C491.344 187.91 477.867 174.8 456.627 174.8C433.116 174.8 418.102 190.474 418.102 215.669C418.102 241.304 433.116 256.685 456.773 256.685C477.428 256.685 491.271 244.746 492.369 226.216H472.447C471.129 234.785 465.562 239.912 456.993 239.912C446.373 239.912 439.781 231.123 439.781 215.669C439.781 200.508 446.373 191.572 456.92 191.572C465.709 191.572 471.202 197.432 472.447 205.708H492.296ZM533.019 240.791C525.768 240.791 520.934 237.129 520.934 231.27C520.934 225.703 525.475 222.114 533.458 221.528L550.011 220.503V226.216C550.011 234.712 542.32 240.791 533.019 240.791ZM525.987 256.245C535.802 256.245 545.543 251.338 549.938 242.988H550.377V255H571.031V201.021C571.031 185.2 557.921 174.8 537.779 174.8C516.979 174.8 504.015 185.273 503.209 200.508H522.765C523.79 194.722 528.844 190.767 536.827 190.767C544.884 190.767 550.011 195.015 550.011 202.339V207.539L530.235 208.711C510.68 209.883 499.693 218.159 499.693 232.441C499.693 246.577 511.046 256.245 525.987 256.245ZM584.874 255H606.261V209.956C606.261 199.775 612.34 192.744 621.935 192.744C631.529 192.744 636.363 198.604 636.363 208.857V255H657.75V204.39C657.75 186.006 647.936 175.02 630.504 175.02C618.419 175.02 610.143 180.732 605.968 190.474H605.528V176.484H584.874V255ZM743.81 176.484H722.423V221.455C722.423 231.855 716.49 238.667 706.969 238.667C697.521 238.667 692.32 233.101 692.32 222.627V176.484H670.934V227.095C670.934 245.405 682.213 256.465 699.205 256.465C711.07 256.465 718.834 250.752 722.716 240.864H723.155V255H743.81V176.484ZM756.407 199.556C756.407 211.128 764.024 218.892 778.893 222.261L793.395 225.483C800.426 227.168 803.062 229.365 803.062 233.32C803.062 238.447 798.155 241.67 790.025 241.67C781.529 241.67 776.329 237.861 775.304 231.27H754.43C755.602 246.577 768.492 256.685 789.439 256.685C810.167 256.685 824.376 246.504 824.376 231.05C824.376 219.331 818.004 213.105 802.257 209.59L787.242 206.367C780.357 204.756 776.988 202.119 776.988 198.237C776.988 193.184 781.822 189.814 789.22 189.814C797.13 189.814 802.184 193.696 802.623 199.995H822.325C822.032 184.761 809.215 174.8 789.513 174.8C769.371 174.8 756.407 184.614 756.407 199.556ZM870.299 190.62C879.82 190.62 886.339 197.505 886.778 207.539H853.453C854.186 197.725 860.924 190.62 870.299 190.62ZM887.071 230.977C885.094 236.982 879.088 240.864 871.251 240.864C860.338 240.864 853.233 233.174 853.233 221.968V220.649H907.359V214.131C907.359 190.254 892.931 174.8 870.079 174.8C846.861 174.8 832.213 191.06 832.213 216.108C832.213 241.23 846.715 256.685 870.885 256.685C890.294 256.685 904.356 246.357 906.7 230.977H887.071ZM918.419 255H939.806V211.128C939.806 200.068 945.958 193.623 956.505 193.623C959.581 193.623 962.511 194.136 964.269 194.868V176.045C962.804 175.605 960.68 175.239 958.189 175.239C948.961 175.239 942.296 180.659 939.513 190.62H939.073V176.484H918.419V255Z" fill="white"/>
<defs>
<filter id="filter0_d_1_8" x="-4" y="0" width="422" height="422" filterUnits="userSpaceOnUse" color-interpolation-filters="sRGB">
<feFlood flood-opacity="0" result="BackgroundImageFix"/>
<feColorMatrix in="SourceAlpha" type="matrix" values="0 0 0 0 0 0 0 0 0 0 0 0 0 0 0 0 0 0 127 0" result="hardAlpha"/>
<feOffset dy="4"/>
<feGaussianBlur stdDeviation="2"/>
<feComposite in2="hardAlpha" operator="out"/>
<feColorMatrix type="matrix" values="0 0 0 0 0 0 0 0 0 0 0 0 0 0 0 0 0 0 0.25 0"/>
<feBlend mode="normal" in2="BackgroundImageFix" result="effect1_dropShadow_1_8"/>
<feBlend mode="normal" in="SourceGraphic" in2="effect1_dropShadow_1_8" result="shape"/>
</filter>
</defs>
</svg>
